<mxfile host="app.diagrams.net" modified="2022-08-14T07:32:55.168Z" agent="5.0 (Macintosh; Intel Mac OS X 10_15_7) AppleWebKit/537.36 (KHTML, like Gecko) Chrome/104.0.0.0 Safari/537.36" etag="AYJJ7LpS5--ypZiBzi19" version="20.2.3" type="github">
  <diagram id="bBco358M5jjY9dARVESc" name="Page-1">
    <mxGraphModel dx="791" dy="471" grid="1" gridSize="10" guides="1" tooltips="1" connect="1" arrows="1" fold="1" page="1" pageScale="1" pageWidth="827" pageHeight="1169" math="0" shadow="0">
      <root>
        <mxCell id="0" />
        <mxCell id="1" parent="0" />
        <mxCell id="o1xFmtXkBkBuuVzdBPZ8-1" value="CodeStix - #01" style="text;strokeColor=none;fillColor=none;html=1;fontSize=24;fontStyle=1;verticalAlign=middle;align=center;" parent="1" vertex="1">
          <mxGeometry x="330" y="40" width="176" height="40" as="geometry" />
        </mxCell>
        <mxCell id="sDi2s6s17hB-szPi6vdU-6" value="" style="edgeStyle=orthogonalEdgeStyle;rounded=0;orthogonalLoop=1;jettySize=auto;html=1;" edge="1" parent="1" source="o1xFmtXkBkBuuVzdBPZ8-12" target="sDi2s6s17hB-szPi6vdU-5">
          <mxGeometry relative="1" as="geometry" />
        </mxCell>
        <mxCell id="sDi2s6s17hB-szPi6vdU-15" style="edgeStyle=orthogonalEdgeStyle;rounded=0;orthogonalLoop=1;jettySize=auto;html=1;entryX=-0.014;entryY=0.395;entryDx=0;entryDy=0;entryPerimeter=0;" edge="1" parent="1" source="o1xFmtXkBkBuuVzdBPZ8-12" target="sDi2s6s17hB-szPi6vdU-12">
          <mxGeometry relative="1" as="geometry">
            <Array as="points">
              <mxPoint x="148" y="235" />
              <mxPoint x="120" y="235" />
              <mxPoint x="120" y="306" />
            </Array>
          </mxGeometry>
        </mxCell>
        <mxCell id="o1xFmtXkBkBuuVzdBPZ8-12" value="What is Coding ?" style="text;strokeColor=none;fillColor=none;html=1;fontSize=24;fontStyle=1;verticalAlign=middle;align=center;" parent="1" vertex="1">
          <mxGeometry x="60" y="140" width="176" height="40" as="geometry" />
        </mxCell>
        <mxCell id="o1xFmtXkBkBuuVzdBPZ8-18" value="" style="edgeStyle=orthogonalEdgeStyle;rounded=0;orthogonalLoop=1;jettySize=auto;html=1;" parent="1" edge="1">
          <mxGeometry relative="1" as="geometry">
            <mxPoint x="454" y="170" as="sourcePoint" />
          </mxGeometry>
        </mxCell>
        <mxCell id="sDi2s6s17hB-szPi6vdU-8" value="" style="edgeStyle=orthogonalEdgeStyle;rounded=0;orthogonalLoop=1;jettySize=auto;html=1;" edge="1" parent="1" source="sDi2s6s17hB-szPi6vdU-5" target="sDi2s6s17hB-szPi6vdU-7">
          <mxGeometry relative="1" as="geometry" />
        </mxCell>
        <mxCell id="sDi2s6s17hB-szPi6vdU-5" value="ITs a process&amp;nbsp;&lt;br&gt;instrctions&amp;nbsp;&lt;br&gt;transfom into a language,&amp;nbsp;" style="whiteSpace=wrap;html=1;strokeColor=#FF3333;" vertex="1" parent="1">
          <mxGeometry x="300" y="130" width="120" height="60" as="geometry" />
        </mxCell>
        <mxCell id="sDi2s6s17hB-szPi6vdU-11" style="edgeStyle=orthogonalEdgeStyle;rounded=0;orthogonalLoop=1;jettySize=auto;html=1;entryX=0.08;entryY=0.5;entryDx=0;entryDy=0;entryPerimeter=0;" edge="1" parent="1" source="sDi2s6s17hB-szPi6vdU-7" target="sDi2s6s17hB-szPi6vdU-10">
          <mxGeometry relative="1" as="geometry" />
        </mxCell>
        <mxCell id="sDi2s6s17hB-szPi6vdU-7" value="0101010" style="whiteSpace=wrap;html=1;strokeColor=#FF3333;" vertex="1" parent="1">
          <mxGeometry x="500" y="130" width="120" height="60" as="geometry" />
        </mxCell>
        <mxCell id="sDi2s6s17hB-szPi6vdU-10" value="" style="verticalLabelPosition=bottom;html=1;verticalAlign=top;align=center;strokeColor=none;fillColor=#00BEF2;shape=mxgraph.azure.laptop;pointerEvents=1;" vertex="1" parent="1">
          <mxGeometry x="680" y="145" width="50" height="30" as="geometry" />
        </mxCell>
        <mxCell id="sDi2s6s17hB-szPi6vdU-14" value="" style="edgeStyle=orthogonalEdgeStyle;rounded=0;orthogonalLoop=1;jettySize=auto;html=1;" edge="1" parent="1" source="sDi2s6s17hB-szPi6vdU-12" target="sDi2s6s17hB-szPi6vdU-13">
          <mxGeometry relative="1" as="geometry" />
        </mxCell>
        <mxCell id="sDi2s6s17hB-szPi6vdU-12" value="What is Program ?" style="text;strokeColor=none;fillColor=none;html=1;fontSize=24;fontStyle=1;verticalAlign=middle;align=center;" vertex="1" parent="1">
          <mxGeometry x="190" y="290" width="176" height="40" as="geometry" />
        </mxCell>
        <mxCell id="sDi2s6s17hB-szPi6vdU-18" value="" style="edgeStyle=orthogonalEdgeStyle;rounded=0;orthogonalLoop=1;jettySize=auto;html=1;entryX=0.308;entryY=0.007;entryDx=0;entryDy=0;entryPerimeter=0;" edge="1" parent="1" source="sDi2s6s17hB-szPi6vdU-13" target="sDi2s6s17hB-szPi6vdU-19">
          <mxGeometry relative="1" as="geometry">
            <mxPoint x="210" y="460" as="targetPoint" />
            <Array as="points">
              <mxPoint x="560" y="390" />
              <mxPoint x="680" y="390" />
              <mxPoint x="680" y="460" />
            </Array>
          </mxGeometry>
        </mxCell>
        <mxCell id="sDi2s6s17hB-szPi6vdU-13" value="Set of Instructions&amp;nbsp;" style="whiteSpace=wrap;html=1;strokeColor=#FF3333;" vertex="1" parent="1">
          <mxGeometry x="500" y="280" width="120" height="60" as="geometry" />
        </mxCell>
        <mxCell id="sDi2s6s17hB-szPi6vdU-19" value="What are Programming Languagas ?" style="text;strokeColor=none;fillColor=none;html=1;fontSize=24;fontStyle=1;verticalAlign=middle;align=center;" vertex="1" parent="1">
          <mxGeometry x="154" y="460" width="176" height="40" as="geometry" />
        </mxCell>
        <mxCell id="sDi2s6s17hB-szPi6vdU-21" style="edgeStyle=orthogonalEdgeStyle;rounded=0;orthogonalLoop=1;jettySize=auto;html=1;" edge="1" parent="1" source="sDi2s6s17hB-szPi6vdU-20" target="sDi2s6s17hB-szPi6vdU-19">
          <mxGeometry relative="1" as="geometry" />
        </mxCell>
        <mxCell id="sDi2s6s17hB-szPi6vdU-23" value="" style="edgeStyle=orthogonalEdgeStyle;rounded=0;orthogonalLoop=1;jettySize=auto;html=1;" edge="1" parent="1" source="sDi2s6s17hB-szPi6vdU-20" target="sDi2s6s17hB-szPi6vdU-22">
          <mxGeometry relative="1" as="geometry" />
        </mxCell>
        <mxCell id="sDi2s6s17hB-szPi6vdU-20" value="Eg. Java, C++, PHP, Kotlin" style="whiteSpace=wrap;html=1;strokeColor=#FF3333;" vertex="1" parent="1">
          <mxGeometry x="50" y="552" width="120" height="65" as="geometry" />
        </mxCell>
        <mxCell id="sDi2s6s17hB-szPi6vdU-25" value="" style="edgeStyle=orthogonalEdgeStyle;rounded=0;orthogonalLoop=1;jettySize=auto;html=1;" edge="1" parent="1" source="sDi2s6s17hB-szPi6vdU-22" target="sDi2s6s17hB-szPi6vdU-24">
          <mxGeometry relative="1" as="geometry" />
        </mxCell>
        <mxCell id="sDi2s6s17hB-szPi6vdU-22" value="Compile&amp;nbsp;" style="whiteSpace=wrap;html=1;strokeColor=#FF3333;" vertex="1" parent="1">
          <mxGeometry x="250" y="554.5" width="120" height="60" as="geometry" />
        </mxCell>
        <mxCell id="sDi2s6s17hB-szPi6vdU-27" value="" style="edgeStyle=orthogonalEdgeStyle;rounded=0;orthogonalLoop=1;jettySize=auto;html=1;" edge="1" parent="1" source="sDi2s6s17hB-szPi6vdU-24" target="sDi2s6s17hB-szPi6vdU-26">
          <mxGeometry relative="1" as="geometry" />
        </mxCell>
        <mxCell id="sDi2s6s17hB-szPi6vdU-24" value="01010101" style="whiteSpace=wrap;html=1;strokeColor=#FF3333;" vertex="1" parent="1">
          <mxGeometry x="450" y="554.5" width="120" height="60" as="geometry" />
        </mxCell>
        <mxCell id="sDi2s6s17hB-szPi6vdU-26" value="" style="whiteSpace=wrap;html=1;strokeColor=#FF3333;" vertex="1" parent="1">
          <mxGeometry x="650" y="554.5" width="120" height="60" as="geometry" />
        </mxCell>
        <mxCell id="sDi2s6s17hB-szPi6vdU-28" value="" style="verticalLabelPosition=bottom;html=1;verticalAlign=top;align=center;strokeColor=none;fillColor=#00BEF2;shape=mxgraph.azure.computer;pointerEvents=1;" vertex="1" parent="1">
          <mxGeometry x="685" y="562" width="50" height="45" as="geometry" />
        </mxCell>
        <mxCell id="sDi2s6s17hB-szPi6vdU-29" value="" style="shape=image;html=1;verticalAlign=top;verticalLabelPosition=bottom;labelBackgroundColor=#ffffff;imageAspect=0;aspect=fixed;image=https://cdn4.iconfinder.com/data/icons/black-lives-matter-3/100/Emmett_Till-128.png;strokeColor=#FF3333;" vertex="1" parent="1">
          <mxGeometry x="100" y="710" width="128" height="128" as="geometry" />
        </mxCell>
        <mxCell id="sDi2s6s17hB-szPi6vdU-30" value="Cricket Umpire&lt;br&gt;&lt;br&gt;Its&#39;s sixer&lt;br&gt;&lt;br&gt;&lt;br&gt;&amp;nbsp;&amp;nbsp;" style="whiteSpace=wrap;html=1;verticalAlign=top;strokeColor=#FF3333;labelBackgroundColor=#ffffff;" vertex="1" parent="1">
          <mxGeometry x="104" y="838" width="120" height="60" as="geometry" />
        </mxCell>
        <mxCell id="sDi2s6s17hB-szPi6vdU-32" value="" style="verticalLabelPosition=bottom;html=1;verticalAlign=top;align=center;strokeColor=none;fillColor=#00BEF2;shape=mxgraph.azure.computer;pointerEvents=1;" vertex="1" parent="1">
          <mxGeometry x="600" y="720" width="140" height="120" as="geometry" />
        </mxCell>
        <mxCell id="sDi2s6s17hB-szPi6vdU-36" value="" style="edgeStyle=orthogonalEdgeStyle;rounded=0;orthogonalLoop=1;jettySize=auto;html=1;" edge="1" parent="1" source="sDi2s6s17hB-szPi6vdU-33" target="sDi2s6s17hB-szPi6vdU-35">
          <mxGeometry relative="1" as="geometry" />
        </mxCell>
        <mxCell id="sDi2s6s17hB-szPi6vdU-33" value="Screen in Stadium&lt;br&gt;&lt;br&gt;Instuction&lt;br&gt;Java, C++&lt;br&gt;" style="whiteSpace=wrap;html=1;verticalAlign=top;strokeColor=#FF3333;labelBackgroundColor=#ffffff;" vertex="1" parent="1">
          <mxGeometry x="610" y="848" width="120" height="60" as="geometry" />
        </mxCell>
        <mxCell id="sDi2s6s17hB-szPi6vdU-34" value="6" style="text;html=1;align=center;verticalAlign=middle;resizable=0;points=[];autosize=1;strokeColor=none;fillColor=none;" vertex="1" parent="1">
          <mxGeometry x="655" y="750" width="30" height="30" as="geometry" />
        </mxCell>
        <mxCell id="sDi2s6s17hB-szPi6vdU-35" value="&lt;div style=&quot;text-align: left;&quot;&gt;If( umpire_said_six&amp;nbsp; == true )&lt;/div&gt;&lt;div style=&quot;text-align: left;&quot;&gt;{&lt;/div&gt;&lt;div style=&quot;text-align: left;&quot;&gt;&lt;br&gt;&lt;/div&gt;&lt;div style=&quot;text-align: left;&quot;&gt;echo &quot;Its&#39; sixer &quot;;&lt;/div&gt;&lt;div style=&quot;text-align: left;&quot;&gt;&lt;br&gt;&lt;/div&gt;&lt;div style=&quot;text-align: left;&quot;&gt;}else{&lt;/div&gt;&lt;div style=&quot;text-align: left;&quot;&gt;&lt;br&gt;&lt;/div&gt;&lt;div style=&quot;text-align: left;&quot;&gt;echo &quot;Its not sixer&quot;;&lt;/div&gt;&lt;div style=&quot;text-align: left;&quot;&gt;&lt;br&gt;&lt;/div&gt;&lt;div style=&quot;text-align: left;&quot;&gt;}&lt;/div&gt;&lt;div style=&quot;text-align: left;&quot;&gt;&lt;br&gt;&lt;/div&gt;" style="whiteSpace=wrap;html=1;verticalAlign=top;strokeColor=#FF3333;labelBackgroundColor=#ffffff;" vertex="1" parent="1">
          <mxGeometry x="330" y="848" width="200" height="172" as="geometry" />
        </mxCell>
      </root>
    </mxGraphModel>
  </diagram>
</mxfile>
